<?xml version="1.0" encoding="UTF-8"?>
<svg id="Capa_1" data-name="Capa 1" xmlns="http://www.w3.org/2000/svg" viewBox="0 0 2701.13 1070.2">
  <defs>
    <style>
      .cls-1, .cls-2, .cls-3 {
        fill: #1d1d1b;
      }

      .cls-4 {
        stroke-width: 2px;
      }

      .cls-4, .cls-3 {
        stroke: #1d1d1b;
        stroke-miterlimit: 10;
      }

      .cls-2 {
        font-family: AvenirNext-Regular, 'Avenir Next';
        font-size: 83.94px;
      }

      .cls-5 {
        letter-spacing: -.06em;
      }

      .cls-6 {
        letter-spacing: -.02em;
      }

      .cls-7 {
        letter-spacing: -.02em;
      }

      .cls-8 {
        letter-spacing: -.03em;
      }

      .cls-9 {
        letter-spacing: -.01em;
      }
    </style>
  </defs>
  <text class="cls-2" transform="translate(938.6 1032.94)"><tspan x="0" y="0">E</tspan><tspan class="cls-7" x="49.69" y="0">S</tspan><tspan class="cls-5" x="95.52" y="0">T</tspan><tspan x="138.33" y="0">ARAS · </tspan><tspan class="cls-9" x="417.26" y="0">C</tspan><tspan x="476.68" y="0">ONJUN</tspan><tspan class="cls-6" x="777.18" y="0">T</tspan><tspan x="823.01" y="0" xml:space="preserve"> MEDIE</tspan><tspan class="cls-8" x="1103.11" y="0">V</tspan><tspan x="1152.89" y="0">A</tspan><tspan class="cls-6" x="1211.65" y="0">L</tspan></text>
  <path class="cls-1" d="M81.31,747.17c-4.36,44.51-5.37,89.34-16.61,133.11-9.15,35.62-13.55,72.16-15.79,108.87-.31,5.03-1.54,6.91-6.59,6.32-3.63-.42-7.95,1.2-7.54-5.3,2.06-32.4-10.24-62.19-16.95-93.03C9.05,856.81,1.73,816.22.05,774.81c-.77-19.12,7.57-36.45,10.03-54.98,1.49-11.19,3.08-22.56,1.22-33.27-6.41-36.94,2.79-72.34,8.32-108.19,3.31-21.5,4.13-43.38,10.44-64.41,1.19-3.97,1.41-9.98,5.45-10.31,4.41-.35,5.02,5.63,6.44,9.48,10.27,27.88,13.53,57.07,15.98,86.38,1.73,20.68,1.38,41.72,5.23,61.98,3.15,16.56,11.24,32.15,14.07,49.13,2.02,12.12,4.28,24.16,4.09,36.55Z"/>
  <path class="cls-3" d="M864.84,930.25V346.7c-37.61-18.34-75.26-36.6-112.79-55.08-5.75-2.83-10.44-3.03-15.92-1.11-21.1,7.39-42.15,14.92-63.32,22.11-17.7,6.01-35.54,11.62-54.08,17.66,0-83.71-.27-165.77.24-247.83.1-15.31-4.77-27.84-14.6-38.58-7.76-8.49-17.41-14.81-27.67-20.23-28-14.77-58.27-18.85-89.34-21.02-52.75-3.69-105.34-3.41-157.1,7.78-42.54,9.2-58.61,24.84-58.72,70.54-.26,111.74-1.96,223.47-3.68,335.2-1.17,76.29.72,152.6-2.46,228.87-.23,5.51-.63,10.08-5.6,14.05-24.31,19.44-48.32,39.26-72.36,59.05-11.97,9.85-23.77,19.92-36.44,30.56,5.89,1.4,9.94,3.27,13.92,3.14,13.1-.41,14.88,6.25,14.73,17.85-.68,51.24-.09,102.5-.5,153.75-.07,8.24,2.15,10.09,10.17,9.83,22.33-.73,44.7-.06,67.04-.73,7.46-.22,8.88,2.14,8.7,9.02-.54,21.18-.21,42.39-.54,63.58-.08,5.03.69,8.3,5.78,10.89,41.25,20.96,83.11,39.23,130.01,44.47,55.24,6.18,108.2.93,158.95-22.85,8.21-3.85,9.09-6.31,4.31-14.16-17.96-29.54-35.02-59.63-52.94-90.43,2.97-.14,4.76-.29,6.56-.3,115.89-.88,231.77-1.63,347.66-2.46ZM668.85,326.99c.16-.84,2.43-1.56,3.81-1.81,3-.54,6.11-1.26,9.09-.98,8.78.83,17.36-1.13,25.91-2.09,7.64-.86,15.23-3.58,22.97-4.66,5.19-.72,10.26-2.78,16.13-1.92-5.75,5.3-11.69,9.33-17.77,13.18-1,.63-2.04,1.28-3.14,1.66-3.1,1.06-4.2.1-3.84-3.17.11-.93,0-1.88.06-2.82.05-.87-.1-1.72-.95-2.03-.96-.35-1.46.52-1.85,1.17-5.27,8.74-14.33,12.37-22.8,16.66-3.38,1.71-4.78.29-5-3.45-.12-2.2.64-4.18,1.03-6.25.19-1.01,1.17-2.04-.16-2.78-1.2-.67-1.95.46-2.66,1.17-3.11,3.12-6.1,6.37-9.64,9.04-2.89,2.17-5.89,4.14-9.17,5.67-3.23,1.5-4.9.69-5.11-2.83-.29-4.83,2.2-9.13,3.1-13.75ZM635.91,333.33c7.83-1.81,15.8-3.01,23.58-5.11.9-.24,1.88-.19,2.86-.13.15-.18.3-.36.45-.54.35.21.7.41,1.05.62-.49,0-1-.04-1.5-.08-3.11,3.85-6.02,7.9-9.47,11.43-4.05,4.15-8.42,8-13.33,11.21-1.34.88-2.7,1.68-4.05,2.52-2.42,1.51-3.6.47-3.67-1.91-.16-5.09-.09-10.19-.07-15.29.01-2.83,2.83-2.42,4.15-2.72ZM599.83,341.71c.07-.49.86-1.14,1.41-1.25,8.53-1.71,17.08-3.35,25.62-4.99.19-.04.42.13.85.28-4.66,7.84-10.97,14.06-17.97,19.63-1.97,1.57-3.96,3.15-6.09,4.49-3.27,2.06-5.09,1.42-5.37-2.39-.39-5.28.78-10.54,1.56-15.77ZM468.56,13.67h19.36c.21.17.3.39.29.66-6.57.04-13.13.08-19.7.12.02-.26.03-.52.05-.78ZM453.83,48.67c.35-1.49.83-1.99,2.27-2.05,4.12-.17,8.24-.58,12.36-.66,6.19-.13,6.39.15,6.49,6.54.08,4.68.09,4.45-4.86,4.12-3.16-.21-6.37.54-9.55.58-6.65.07-8.22-2.12-6.71-8.52ZM443.94,18.4c-2.57,0-4.99.18-7.37-.04-5.28-.48-10.22.84-15.14,2.45-.87.28-1.84.41-2.75.37-11.09-.46-22.03.34-32.92,2.81-3.95.89-8.27.14-12.55.14,9.53-5.41,64.75-9.95,70.73-5.73ZM411.09,48.43c.38.32-1.9,1.16-2.61,1.35-4.03-.52-7.6-.8-11.09-1.48-3.54-.69-2.03-4.16-2.73-6.27-.51-1.55,1.85-.43,2.72-.97,3.8-2.34,6.58,1.27,9.86,1.83,2.09.36,1.92,3.96,3.84,5.54ZM410.54,41.97c.93-.05,1.46-.1,1.99-.1,9.72-.04,9.83.07,10.83,9.76.12,1.13.07,2.35-1.14,2.69-3.16.88-6.37,1.61-9.59,2.3-1.03.22-1.89-.31-2.02-1.41-.14-1.15-.53-2.43.35-3.45q3.87-4.48.08-8.37c-.24-.24-.25-.7-.49-1.42ZM397.36,38.59c-2.05.2-3.53.19-2.99-1.84.94-3.51,4.44-1.61,6.54-2.84,1.26-.74,1.73.59,1.62,1.8-.38,4.04-4.33,1.09-5.18,2.88ZM395.84,30.64c-1.17-.14-2.41.24-2.34-1.72.05-1.5.47-2.09,2.05-2.16,1.8-.08,3.57-.55,5.36-.85,1.07,4.56-1.48,5.15-5.06,4.73ZM393.64,50.66c4.04.34,7.62.61,11.2.95,1.67.16,2.69.91,2.54,2.86-.16,2.01-.01,4.03-.13,6.04-.14,2.33.43,5.18-2.33,6.3-3.73,1.51-10.52.17-11.58-2.47-.65-1.61.8-3.73.77-5.78-.04-2.53.43-5.06-.46-7.9ZM393.7,68.44c7.17,3.35,14.38-.78,21.63.44,1.84.31,2.45.41,2.52,2.34.23,5.9.28,5.76-5.44,7.12-6.56,1.56-13.02,2.11-19.43-.75,1.07-2.7.27-5.79.72-9.14ZM411.43,66.11c-1.88.08-1.85-.96-1.66-2.26.22-1.53,1.37-3-.12-5.07,5.17.63,9.4-1.14,13.77-2.17,2.1-.49,5.1-1.11,5.9.45,1.04,2.01.49,4.92.36,7.43-.06,1.22-1.39.9-2.28,1.05-5.3.92-10.65.35-15.97.57ZM429.33,39.18c-3.61-.02-7.21,0-10.82,0v.3c-3.07,0-6.15.12-9.22-.04-2.1-.11-4.23-.38-4.33-3.42-.1-3.21,2.22-2.82,4.09-2.99,3.62-.32,7.01-.35,10.7-1.88,2.6-1.07,7.26-.43,10.77.48,2.2.57.58,3.24.89,4.93.27,1.48-.24,2.63-2.08,2.62ZM404.17,28.94c.16-1.26-.09-3.45,2.39-3.37,1.75.05,3.5.01,5.24.01v-.02c1.21,0,2.44-.12,3.62.04,1.04.14,2.75-.93,2.97.87.15,1.26-.76,2.63-2.05,3.2-1.07.47-2.43,1.01-3.45.74-2.03-.53-3.87-.54-5.88.08-1.2.37-3.11.51-2.85-1.55ZM426.45,28.97c-.8,0-1.61.04-2.41,0-.92-.05-2.01,0-2.11-1.31-.08-1.03-.33-2.26,1.06-2.71,2.63-.85,5.26-1.71,7.92-2.44.95-.26,1.35.28,1.27,1.38-.28,3.91-1.58,5.12-5.73,5.08ZM391.98,41.24c.63,2.37-.94,3.6-3.09,4.29-1.93.62-3.29.88-4.5-1.51-1.17-2.31-4-1.47-6.14-1.64-1.15-.09-2.37.34-3.51.68-1.97.59-4.95,1.25-5.63-.04-.87-1.66,0-4.32.37-6.51.25-1.52,1.73-.97,2.68-.99,4.56-.08,9.12-.08,13.69-.06,1.92,0,3.81.13,4.61-2.21.2-.59.66-1.3,1.47-.83.7.41.6,1.09.12,1.88.19,2.22-.71,4.5-.06,6.95ZM391.16,73.98c.05,2.56-1.13,4.18-3.46,4.64-3.39.66-6.79,1.42-10.31,1.3-1.2-.04-2.02-.48-1.52-1.59,1.44-3.2.41-6.35-.05-9.46-.48-3.23.81-3.61,3.67-3.71,3.97-.14,7.9,2.05,12.4-.2-1.09,3.44-.79,6.25-.73,9.02ZM363.22,67.05c1.12-2.72,3.9.5,6.06-.53,3.45-1.65,4.41.17,4.13,3.48-.45,5.33-2.33,7.64-6.84,7.61-2.15.43-3.59-.26-3-3.12.03-.13.01-.27,0-.4-.18-2.37-1.16-5.08-.35-7.05ZM367.3,64.33c-4.04.98-5.73-1.54-4.37-5,.37-.94.85-1.28,1.71-1.27,4.57.07,5.39-2.87,5.55-6.6.08-1.83-1.16-4.85.89-5.28,3.53-.73,7.15-2.89,10.88-1.16,1.66.77,1.5,4.23,4.55,3.34,1.49-.43,2.99-.81,4.56-1.23.66,4.27,1.06,8.49.74,12.79-.2,2.66-1.33,3.9-4,3.76-6.85-.37-13.63-1.01-20.51.65ZM370.92,28.26c6.11-.08,12.24.41,18.52-.38-.18,3.37-.74,5.77-5.22,5.28-4.38-.48-8.86-.23-13.29-.08-2.13.07-2.36-.94-2.44-2.65-.09-1.92.82-2.15,2.43-2.17ZM367.56,50.12c1.11,3.57-.71,5.19-3.78,5.19-4.36,0-8.62,1.56-13.07.53-1.83-.43-2.41-1.07-2.39-2.87.05-3.03.32-6.08-1.45-8.9-.53-.84-.45-2.56,1.12-2.96,1.66-.42,1.71.47,1.73,1.99.02,1.53,1.83,1.8,3.11,1.94,3.57.39,7.22,1.11,10.73.75,3.99-.41,5.01.89,4,4.34ZM340.31,55.66c2.04.79,4.22-1.92,6.59,1.47,1.96,2.81,6.88,2.02,10.63,1.39,1.23-.21,3.1-1.26,3.17.66.05,1.47-.24,4.14-2.59,4.25-3.32.15-6.48,1.81-9.48.94-1.47,0-2.55.09-3.61-.01-4.02-.38-6.33-3.24-6.09-7.29.06-1.03.57-1.73,1.39-1.41ZM330.72,53.18c-.75,0-1.7.17-1.69-1.07,0-1.05.73-1.15,1.58-1.36,4.47-1.1,8.97-.91,13.62-.68-.11,2.09-.76,3.18-3.07,3.09-3.47-.15-6.96.02-10.43.03ZM352.73,41.07c3.48-3.2,1.01-7.12,1.21-10.6.21-3.63,1.77-4.13,4.51-3.51,2.05.46,3.92,1.65,6.18,1.39,1.28-.15,1.47.91,1.48,1.91.02,1.88,0,3.75,0,5.63q.02,8.42-8.77,6.95c-1.18-.2-2.41-.12-3.61-.22-1-.08-1.71-.88-.99-1.55ZM328.93,31.91c2.1-.72,4.3-2,6.36-1.85,4.29.32,8.08-1.32,12-2.29,3.17-.78,3.79.19,3.56,2.98-.13,1.59.05,3.2,0,4.8-.05,1.87.35,3.91-2.98,2.6-1.95-.77-2.94,1.34-3.46,3.03-1.9,6.21-1.88,6.22-8.38,6.29-1.68.02-3.36,0-5.04,0-.24-.32-.48-.64-.72-.96,1.51-1.23,3.02-2.45,4.52-3.69.85-.71.96-1.65.37-2.5-.49-.71-1.26-.56-2.13-.45-1.37.17-3.01,1.74-4.2-.16-1.14-1.83-1.26-3.99-1.38-6.09-.05-.94.73-1.45,1.47-1.71ZM333.95,55.57c4.29.92,2.15,4.42,2.99,6.6.89,2.28-1.34,2.22-2.99,2.32-8.01.49-15.93-1.01-24.42-1.06.34-1.14.6-2.02.87-2.89.48-1.58-.96-3.8.74-4.76,2.64-1.49,5.65-2.55,8.78-1.58,2.03.63,3.85,1.07,5.56-.62.2-.2.61-.2.93-.29,1.22,4.82,5.01,1.74,7.54,2.28ZM307.49,37.62c4.95-2.27,10.34-3.04,15.51-4.52,2.82-.81,1.7,1.81,1.87,2.47.38,2.11.22,2.81-1.71,3.21-4.98,1.04-10.1.02-15.03,1.34-.6.16-1.39.2-1.62-.67s.05-1.41.98-1.84ZM307.46,43.34c4.79-.4,9.58-.84,14.34-1.5,2.37-.33,3.56,1.28,3.58,2.75.02,1.87-1.8,2.18-3.66,1.87-1.97-.33-4-.26-7.21-.44-1.51-.32-4.14.38-6.8.66-1.09.12-2.14.22-2.13-1.48,0-1.41.54-1.75,1.88-1.86ZM310.13,49.22c4.96-.1,9.92-.03,15.48-.03-1.52,2.34-2.49,3.68-5.35,2.68-2.41-.84-5.28-.78-7.78.62-.35.2-.67.52-1.04.58-2.4.35-4.79.44-6.99-.85-.59-.35-.55-1.05-.25-1.4,1.59-1.82,3.85-1.56,5.92-1.6ZM292.3,42.05c3.63-.17,6.73-2.22,10.65-2.43-.17,1.36-.35,2.63-.47,3.91-.12,1.31-.5,2.62-2.06,2.35-3.56-.62-6.85,3.18-10.3.79-1.65-1.14-.08-4.52,2.18-4.62ZM299.79,72.95c-.35.66-1.09.9-1.72.74-3.88-.97-7.74-.21-11.6.12-2.24.19-3.5-.8-3.25-2.9.23-1.9-1.32-4.75,2.51-5.22,2.9-.36,5.68-1.59,8.27-1.22.96,0,1.49,0,2.03,0,1.74-.02,4.08-.33,4.62,1.47.66,2.23.32,4.79-.86,7.01ZM284.94,62.83c-2.19.26-3.37.81-4.28,2.56-.22-.3-.43-.59-.65-.89.34-4.48,1.89-8.78,1.59-13.38-.23-3.47,2.47-5.28,5.01-7.3,1.03,6.35,2.66,7.34,8.99,5.84,1.16-.28,2.34-.59,3.52-.69,1.69-.14,3.18-.1,2.53,2.46-.53,2.09.07,3.41,2.77,3.57,2.85.17,3.22,2.4,2.99,4.93-.26,2.89-2.24,3.2-4.25,2.85-6.1-1.08-12.11-.67-18.22.04ZM323.42,73.17c-4.45-1.33-10.21-.35-15.93-.49-2.92-.07-4.57-2.96-3.48-5.64.22-.55.54-1.1,1.08-.87,4.89,2.05,9.95-.36,14.91.64,1.67.34,3.41.41,5.11.78,1.25.27,2.98-.15,2.23,1.99-.51,1.46.53,4.22-3.92,3.59ZM337.8,74.25c-2.3,1.5-4.67.62-5.94-.39-1.56-1.25-.41-3.96-.34-6.02.05-1.45,1.41-.8,2.23-.92,3.41-.49,6.79-.45,10.24-.11,4.51.44,9.11.37,13.48-.94,2.44-.73,2.84.28,2.86,2.19.03,2.5,0,5,0,7.75-5.03-1.52-9.56-3.94-14.87-3.34-2.67.3-5.45.35-7.66,1.79ZM383.71,417.08c-2.95,5.11-8.15,7.59-12.73,10.72-2.45,1.67-4.93.33-5.82-2.6-1.08-3.58.43-7.04,3.95-8.34,6.42-2.37,12.67-5.14,19.22-8.3.07,4.16-3.1,5.89-4.62,8.53ZM389.7,401.51c-.51-.12-1.59.3-1.72.7-1.93,5.85-7.93,5.65-12.13,7.84-5.34,2.79-11.24,4.61-17.03,6.4-2.19.68-4.76.11-7.56.11,1.58-4.26,5.44-5.84,8.42-7.55,3.98-2.3,7.45-5.42,11.94-7.03,11.22-4.03,22.24-8.59,33.77-11.82,7.67-2.15,15.03-5.34,22.61-7.83,9.59-3.15,18.95-7.01,28.6-9.83,6.39-1.86,13.04-3.98,20.7-3.17-6.29,2.89-12.4,4.37-18.24,6.58-5.44,2.05-10.72,4.52-16.08,6.79-7.54,3.19-15.19,6.09-23.06,8.36-5.14,1.48-9.21,5.22-14.39,6.63-5.24,1.42-9.86,5.29-15.82,3.82ZM402.17,421.29c-.65.81-1.54,1.52-2.45,2.03-2.13,1.19-3.68.85-3.72-1.95-.1-6.18,2.69-11.59,4.92-17.08.72-1.78,3.38-1.84,5.17-2.66,4.56-2.08,9.08-4.25,13.57-6.46,1.13-.55,2.21-.88,3.86-.57-7.22,9.04-14.26,17.89-21.35,26.7ZM436.2,404.94c-2.34,2.65-3.97,5.93-6.68,8.36-.61.54-1.02,1.34-1.94,1.07-1.01-.29-1.47-1.12-1.46-2.14.03-5.24-.07-10.48.23-15.7.08-1.35.35-3.15,2.26-3.92,8.69-3.51,17.33-7.13,25.99-10.71.19.29.37.58.56.87-7.24,6.62-12.53,14.87-18.97,22.18ZM498.08,388.75c-.78.7-1.68,1.3-2.62,1.78-3.6,1.82-5.72.56-5.61-3.4.11-3.89.98-7.64,2.69-11.16.74-1.52,1.57-3.53.12-4.39-1.71-1.02-2.7,1.08-3.47,2.4-6.51,11.25-14.89,20.99-24.07,30.12-1.47,1.46-2.99,1.8-4.68,1.35-1.92-.5-2.59-2.25-2.72-4.05-.49-7.14.38-14.11,3.12-20.76,1.08-2.62,3.98-3.23,6.18-3.74,5.97-1.38,11.39-4.24,17.29-5.75,7.93-2.04,15.85-4.02,23.97-5.28,3.73-.58,7.59-1.1,11.25-2.3,12.22-4.85,25.11-7.62,37.48-12.06,8.3-2.98,17.16-4.39,25.77-6.51,3.32-.82,6.64-1.63,10.33-2.53-.35,3.41-2.76,5.2-4.43,7.15-6.74,7.87-14.72,14.37-23.6,19.75-3.61,2.19-5.17,1.4-5.74-2.81-.38-2.83.44-5.56.73-8.34.14-1.38.64-3.25-1.05-3.98-1.52-.65-2.38.96-3.2,1.91-6.16,7.07-12.14,14.29-19.3,20.4-2.54,2.17-5.06,4.42-7.84,6.24-3.19,2.09-3.92,1.45-4.2-2.23-.35-4.72.85-9.29.88-13.97.03-3.59-1.29-4.08-4.03-2.08-6.97,8.84-14.9,16.75-23.28,24.24Z"/>
  <g>
    <path d="M1229.7,910.48l1.11,1.02h-53.68l1.11-1.02c7.57-6.99,11.88-16.83,11.88-27.14v-214.72l-107.97,242.78-109.23-245.59v215.76c0,10.89,4.8,21.23,13.13,28.24l1.99,1.68h-35.79l1.99-1.68c8.33-7.02,13.13-17.35,13.13-28.24v-200.12c0-10.31-4.3-20.15-11.88-27.14l-12.19-11.25h49.81l101.15,227.43,101.15-227.43h35.39l-1.11,1.02c-7.57,6.99-11.88,16.83-11.88,27.14v212.12c0,10.32,4.3,20.16,11.88,27.16Z"/>
    <path d="M1408.39,894.05l11.27-12.19v29.59l-175.43.04,1.08-1c7.58-6.99,11.89-16.83,11.89-27.14v-212.16c0-10.31-4.31-20.15-11.89-27.14l-1.08-1h175.4v29.63l-11.27-12.19c-6.99-7.57-16.83-11.88-27.14-11.88h-96.31v125.9h41.12c10.31,0,20.15-4.3,27.14-11.88l11.28-12.22v53.68l-11.23-12.16c-6.99-7.57-16.83-11.88-27.14-11.88h-41.17v125.88h96.37c10.3,0,20.13-4.31,27.12-11.87Z"/>
    <path d="M1545.84,643.04l-1.11,1.02c-7.57,7-11.88,16.84-11.88,27.14v179.49c.21,11.38-2.21,22.66-7.08,32.95-3.49,7.13-8.74,13.24-15.25,17.78-5.5,3.7-11.64,6.37-18.1,7.84-7.68,1.73-15.55,2.47-23.43,2.21h-.14c-8.47.24-16.9-1.4-24.66-4.8-7.53-3.32-14-8.66-18.7-15.43-4.75-6.89-8.16-14.61-10.05-22.76-.67-3.14,2.73-6.13,7.83-6.65,3.22-.34,6.46-.35,9.69-.03,5.14.54,8.75,2.42,8.3,4.63-.92,5.55-.8,11.22.35,16.72,1.23,5.67,4.05,10.88,8.13,15,5.07,5.13,12.04,7.94,19.25,7.76,7.02.4,14-1.34,20.01-5,4.1-2.73,7.38-6.53,9.49-10.98,2.19-4.7,3.73-9.67,4.56-14.78,1.41-8.08,2.11-16.28,2.09-24.48v-179.49c0-10.31-4.31-20.15-11.88-27.14l-1.11-1.02h53.7Z"/>
    <path d="M1753.61,911.53h-53.67c7.17-6.64,9.52-17,5.93-26.08l-37.48-94.75c-14.88,9.88-32.43,14.96-50.29,14.55-27.9-.68-39.91,11.27-41.61,13.11l-14.67,37.09-.04.11c-.05.14-.09.27-.14.4-2.25,6.09-2.41,12.75-.44,18.94,3.37,10.25,10.7,18.74,20.36,23.57,1.69.87.9,4.61-1.82,9.04-.37.6-.8,1.13-1.18,1.71h.02l.07.07-1.48,1.95-.41.56-1.44,1.88s-.04-.03-.07-.03l-.05-.04c-.45.53-.87,1.09-1.33,1.6-3.44,3.75-7.84,4.86-9.75,2.4-9.62-11.74-14.3-26.77-13.06-41.9.82-7.67,2.7-15.18,5.59-22.33v-.02l83.15-210.23,98.63,249.42c2.05,5.18,5.24,9.83,9.34,13.6l5.82,5.38ZM1666.27,785.35l-38.38-97.04-47.44,119.91v.03c11.53-6.38,24.63-9.36,37.78-8.58,17.11.36,33.91-4.65,48.03-14.32Z"/>
    <path d="M1973.2,642.6l-1.99,1.68c-8.32,7.02-13.13,17.35-13.13,28.24v238.84l-183.44-254.87-.18.1v224.97c0,10.89,4.8,21.23,13.13,28.24l1.99,1.68h-35.79l2-1.68c8.32-7.02,13.13-17.35,13.13-28.24v-208.59c0-10.89-4.8-21.23-13.13-28.25l-2-1.68h45.29l153.46,213.21v-183.72c0-10.89-4.81-21.23-13.13-28.24l-1.99-1.68h35.79Z"/>
    <path d="M2149.19,894.05l11.27-12.19v29.59l-175.43.04,1.08-1c7.58-6.99,11.89-16.83,11.89-27.14v-212.16c0-10.31-4.31-20.15-11.89-27.14l-1.08-1h175.4v29.63l-11.27-12.19c-6.99-7.57-16.83-11.88-27.14-11.88h-96.31v125.9h41.12c10.31,0,20.15-4.3,27.14-11.88l11.28-12.22v53.68l-11.23-12.16c-6.99-7.57-16.83-11.88-27.14-11.88h-41.17v125.88h96.37c10.3,0,20.13-4.31,27.12-11.87Z"/>
    <path d="M2389.65,911.48h-222.38l1.16-1.08c7.57-6.99,11.88-16.83,11.88-27.14v-212.01c0-10.31-4.31-20.15-11.88-27.14l-1.16-1.08h53.68l-1.05.97c-7.57,6.99-11.88,16.83-11.88,27.14v234.78h143.24c10.31,0,20.15-4.31,27.15-11.88l11.25-12.19v29.63Z"/>
    <path d="M2613.61,911.48h-222.38l1.16-1.08c7.57-6.99,11.88-16.83,11.88-27.14v-212.01c0-10.31-4.31-20.15-11.88-27.14l-1.16-1.08h53.68l-1.05.97c-7.57,6.99-11.88,16.83-11.88,27.14v234.78h143.24c10.31,0,20.15-4.31,27.15-11.88l11.25-12.19v29.63Z"/>
  </g>
  <g>
    <path class="cls-4" d="M1145.4,315.76v29.4l-11.17-12.1c-6.94-7.52-16.71-11.8-26.95-11.8h-58.03v233.05c0,10.23,4.27,20,11.79,26.95l1.1,1.01h-53.29l1.1-1.01c7.52-6.94,11.8-16.71,11.8-26.95v-233.04h-58.04c-10.23,0-20,4.27-26.95,11.79l-11.18,12.1v-29.41h219.83Z"/>
    <path class="cls-4" d="M1362.74,382.22c21.12,41.86,21.12,91.27,0,133.13-6.96,13.37-16.37,25.33-27.73,35.24-4.78,4.19-9.85,8.05-15.15,11.55l-8.33,4.85c-2.76,1.72-5.96,2.88-9.02,4.43-11.04,4.99-22.76,8.31-34.77,9.86-4.42.63-8.88.95-13.35.97h-.14c-4.47-.01-8.93-.34-13.36-.97-12.01-1.55-23.73-4.87-34.76-9.86-3.06-1.55-6.26-2.72-9.02-4.43l-8.33-4.85c-5.31-3.51-10.37-7.36-15.15-11.55-11.35-9.92-20.76-21.87-27.72-35.24-21.12-41.86-21.12-91.27,0-133.13,6.97-13.37,16.37-25.33,27.73-35.24,4.79-4.19,9.85-8.05,15.15-11.55l8.33-4.85c2.76-1.71,5.96-2.88,9.02-4.43,11.03-4.99,22.75-8.31,34.76-9.86,4.43-.63,8.89-.95,13.36-.97h.14c4.47.01,8.93.34,13.36.97,12.02,1.54,23.73,4.86,34.77,9.86,3.06,1.56,6.25,2.72,9.01,4.43l8.33,4.85c5.3,3.51,10.37,7.37,15.14,11.55,11.36,9.92,20.77,21.87,27.73,35.24h0ZM1340.83,392.15c-4.45-12.07-10.48-23.5-17.94-33.98-3.27-4.59-6.88-8.93-10.78-12.99l-6.46-5.78c-2.35-1.94-4.82-3.74-7.39-5.39-13.06-8.51-28.29-13.08-43.88-13.18h-.08l-.88.06c-15.42.21-30.46,4.83-43.33,13.32l-3.79,2.62-1.83,1.28-1.68,1.47-6.39,5.74c-3.86,4.05-7.43,8.37-10.68,12.94-7.42,10.47-13.43,21.87-17.87,33.91-13.68,36.52-13.68,76.75,0,113.27,4.45,12.07,10.48,23.5,17.93,33.98,3.27,4.59,6.88,8.93,10.78,12.99l6.46,5.78c2.35,1.94,4.82,3.74,7.39,5.39,13.06,8.51,28.29,13.08,43.88,13.18h.08l.89-.06c15.42-.21,30.46-4.83,43.33-13.32l3.79-2.62,1.83-1.29,1.67-1.47,6.39-5.74c3.86-4.05,7.43-8.37,10.68-12.94,7.42-10.47,13.43-21.87,17.87-33.92,13.67-36.52,13.67-76.74,0-113.26Z"/>
    <path class="cls-4" d="M1640.07,608.29h-.58c-22.78.32-37.6-.05-52.08-10.68-7.67-6.28-13.45-14.56-16.71-23.92-4.04-12.04-7.18-24.36-9.4-36.87-.42-1.7-.83-3.35-1.23-4.96l-1.3-4.4c-.97-2.74-2.02-5.14-2.82-7.58-1-2.3-2.21-4.31-3.12-6.38-.97-2.04-2.31-3.66-3.3-5.46-1.01-1.67-2.14-3.26-3.38-4.77-1.02-1.5-2.16-2.92-3.42-4.23-1.19-1.27-2.28-2.63-3.44-3.84l-3.63-3.4c-5.03-4.62-10.77-8.41-17-11.21-8.42-3.73-17.51-5.7-26.72-5.78h-61.47v79.53c0,10.23,4.27,20,11.79,26.95l1.1,1.01h-53.3l1.1-1.01c7.52-6.94,11.79-16.71,11.79-26.95v-210.6c0-10.23-4.27-20-11.79-26.95l-1.1-1.01h102.24c11.31.03,22.58,1.34,33.59,3.89,8.76,1.89,17.27,4.77,25.38,8.58,9.71,4.68,18.3,11.39,25.21,19.66,4.79,5.78,8.66,12.26,11.49,19.21,1.62,4.25,2.86,8.63,3.72,13.09.55,2.44.9,4.92,1.04,7.41.08,1.29.16,2.57.25,3.91.08,1.34.11,2.72.13,3.75.02,1.04-.05,2.41-.13,3.75-.08,1.33-.17,2.63-.25,3.91-.14,2.49-.49,4.97-1.04,7.41-.86,4.47-2.1,8.85-3.72,13.1-2.83,6.95-6.7,13.43-11.49,19.21-6.91,8.27-15.5,14.98-25.21,19.66-8.11,3.81-16.62,6.69-25.38,8.58-1.61.37-3.28.72-4.98,1.06l.23.04c7.74,1.09,15.35,2.92,22.74,5.48l5.75,2.3c1.91.92,3.83,2.03,5.87,3.16,2.15,1.17,4.19,2.54,6.09,4.09,2.23,1.59,4.32,3.37,6.23,5.33,2.2,2.15,4.25,4.45,6.14,6.87,1.83,2.67,3.93,5.49,5.72,8.68,1.58,3.27,3.35,6.79,4.85,10.57.63,1.9,1.28,3.85,1.95,5.87l1.6,6.14c1.92,8.36,2.86,15.33,3.67,21.34.8,5.94,1.4,10.95,2.09,15.19.71,6.73,2.64,13.28,5.67,19.33,3.15,5.41,7.94,9.67,13.67,12.18,1.7.78,3.44,1.48,5.21,2.08,2.05.54,4.13.94,6.23,1.19,5.13.65,10.29.97,15.45.95v5.5ZM1492.95,469.28c10.5.05,20.86-2.32,30.3-6.91,6.95-3.49,13.27-8.1,18.7-13.65,5.81-5.94,10.8-12.63,14.85-19.89,2.53-4.55,4.6-9.34,6.18-14.3.8-2.91,1.43-5.86,1.87-8.85.32-1.61.5-3.24.53-4.88.05-.84.07-1.71.13-2.57.05-.85.07-1.7.1-2.93.02-1.23-.05-2.08-.1-2.93-.04-.87-.08-1.72-.13-2.57-.03-1.64-.21-3.27-.53-4.88-.45-2.98-1.07-5.94-1.87-8.85-1.57-4.97-3.64-9.77-6.18-14.32-4.05-7.28-9.07-13.98-14.9-19.93-5.49-5.59-11.87-10.22-18.9-13.7-9.56-4.61-20.06-6.96-30.68-6.85h-61.84v148.05h61.84l.64-.03h0Z"/>
    <path class="cls-4" d="M1860.53,608.29h-.58c-22.78.32-37.6-.05-52.08-10.68-7.67-6.28-13.45-14.56-16.71-23.92-4.04-12.04-7.18-24.36-9.4-36.87-.42-1.7-.83-3.35-1.23-4.96l-1.3-4.4c-.97-2.74-2.02-5.14-2.82-7.58-1-2.3-2.21-4.31-3.12-6.38-.97-2.04-2.31-3.66-3.3-5.46-1.01-1.67-2.14-3.26-3.38-4.77-1.02-1.5-2.16-2.92-3.42-4.23-1.19-1.27-2.28-2.63-3.44-3.84l-3.63-3.4c-5.03-4.62-10.77-8.41-17-11.21-8.42-3.73-17.51-5.7-26.72-5.78h-61.47v79.53c0,10.23,4.27,20,11.79,26.95l1.1,1.01h-53.3l1.1-1.01c7.52-6.94,11.79-16.71,11.79-26.95v-210.6c0-10.23-4.27-20-11.79-26.95l-1.1-1.01h102.24c11.31.03,22.58,1.34,33.59,3.89,8.76,1.89,17.27,4.77,25.38,8.58,9.71,4.68,18.3,11.39,25.21,19.66,4.79,5.78,8.66,12.26,11.49,19.21,1.62,4.25,2.86,8.63,3.72,13.09.55,2.44.9,4.92,1.04,7.41.08,1.29.16,2.57.25,3.91.08,1.34.11,2.72.13,3.75.02,1.04-.05,2.41-.13,3.75-.08,1.33-.17,2.63-.25,3.91-.14,2.49-.49,4.97-1.04,7.41-.86,4.47-2.1,8.85-3.72,13.1-2.83,6.95-6.7,13.43-11.49,19.21-6.91,8.27-15.5,14.98-25.21,19.66-8.11,3.81-16.62,6.69-25.38,8.58-1.61.37-3.28.72-4.98,1.06l.23.04c7.74,1.09,15.35,2.92,22.74,5.48l5.75,2.3c1.91.92,3.83,2.03,5.87,3.16,2.15,1.17,4.19,2.54,6.09,4.09,2.23,1.59,4.32,3.37,6.23,5.33,2.2,2.15,4.25,4.45,6.14,6.87,1.83,2.67,3.93,5.49,5.72,8.68,1.58,3.27,3.35,6.79,4.85,10.57.63,1.9,1.28,3.85,1.95,5.87l1.6,6.14c1.92,8.36,2.86,15.33,3.67,21.34.8,5.94,1.4,10.95,2.09,15.19.71,6.73,2.64,13.28,5.67,19.33,3.15,5.41,7.94,9.67,13.67,12.18,1.7.78,3.44,1.48,5.21,2.08,2.05.54,4.13.94,6.23,1.19,5.13.65,10.29.97,15.45.95v5.5ZM1713.41,469.28c10.5.05,20.86-2.32,30.3-6.91,6.95-3.49,13.27-8.1,18.7-13.65,5.81-5.94,10.8-12.63,14.85-19.89,2.53-4.55,4.6-9.34,6.18-14.3.8-2.91,1.43-5.86,1.87-8.85.32-1.61.5-3.24.53-4.88.05-.84.07-1.71.13-2.57.05-.85.07-1.7.1-2.93.02-1.23-.05-2.08-.1-2.93-.04-.87-.08-1.72-.13-2.57-.03-1.64-.21-3.27-.53-4.88-.45-2.98-1.07-5.94-1.87-8.85-1.57-4.97-3.64-9.77-6.18-14.32-4.05-7.28-9.07-13.98-14.9-19.93-5.49-5.59-11.87-10.22-18.9-13.7-9.56-4.61-20.06-6.96-30.68-6.85h-61.84v148.05h61.84l.64-.03h0Z"/>
    <path class="cls-4" d="M1993.97,564.96l11.19-12.1v29.38l-174.18.04,1.07-.99c7.52-6.94,11.8-16.71,11.8-26.95v-210.64c0-10.23-4.28-20.01-11.8-26.95l-1.07-.99h174.14v29.41l-11.19-12.1c-6.94-7.52-16.71-11.79-26.95-11.79h-95.62v125h40.83c10.23,0,20-4.27,26.95-11.79l11.2-12.13v53.3l-11.15-12.07c-6.94-7.52-16.71-11.8-26.95-11.8h-40.88v124.98h95.68c10.22,0,19.98-4.28,26.92-11.79Z"/>
    <path class="cls-4" d="M2333.97,406.5c9.51,27.57,9.51,57.54,0,85.11-9.37,26.49-27.21,49.15-50.77,64.47-23.42,14.59-50.01,23.35-77.52,25.53-4.62.46-9.3.69-14.04.69h-86.61l1.1-1.01c7.52-6.94,11.79-16.71,11.79-26.95v-210.6c0-10.23-4.27-20-11.79-26.95l-1.1-1.01h86.48c5.09,0,10.17.28,15.23.82,13.12,1.18,26.06,3.79,38.61,7.8,13.31,4.36,26.04,10.3,37.94,17.69,13.86,9.05,25.84,20.69,35.28,34.28,6.41,9.32,11.58,19.42,15.38,30.07l.02.04ZM2308.66,483.46c9.2-31.64,5.39-65.65-10.59-94.47-6.71-12.5-15.19-23.98-25.16-34.08-9.22-9.03-19.77-16.57-31.29-22.37-15.64-7.47-32.75-11.32-50.07-11.28h-46.12v255.5h46.11c17.32.05,34.44-3.81,50.07-11.27,11.52-5.8,22.07-13.35,31.29-22.37,9.97-10.1,18.45-21.58,25.16-34.08,4.37-8.16,7.91-16.73,10.59-25.59h.02Z"/>
    <path class="cls-4" d="M2515.09,564.96l11.19-12.1v29.38l-174.18.04,1.07-.99c7.52-6.94,11.8-16.71,11.8-26.95v-210.64c0-10.23-4.28-20.01-11.8-26.95l-1.07-.99h174.14v29.41l-11.19-12.1c-6.94-7.52-16.71-11.79-26.95-11.79h-95.62v125h40.83c10.23,0,20-4.27,26.95-11.79l11.2-12.13v53.3l-11.15-12.07c-6.94-7.52-16.71-11.8-26.95-11.8h-40.88v124.98h95.68c10.22,0,19.98-4.28,26.92-11.79Z"/>
  </g>
</svg>